<svg width="17" height="17" viewBox="0 0 17 17" fill="none" xmlns="http://www.w3.org/2000/svg">
<path d="M0.298681 9.53148C-0.00138556 7.57877 -0.151419 6.60249 0.217745 5.73697C0.5869 4.87145 1.40593 4.27927 3.04397 3.0949L4.26784 2.21C6.30555 0.736669 7.32437 0 8.5 0C9.67564 0 10.6944 0.736669 12.7322 2.21L13.9561 3.0949C15.5941 4.27927 16.4131 4.87145 16.7822 5.73697C17.1514 6.60249 17.0014 7.57877 16.7013 9.53148L16.4455 11.1965C16.02 13.9646 15.8074 15.3486 14.8147 16.1743C13.8219 17 12.3706 17 9.46798 17H7.53202C4.62938 17 3.17807 17 2.18535 16.1743C1.19263 15.3486 0.97994 13.9646 0.554566 11.1965L0.298681 9.53148Z" fill="#E4B88A"/>
<path d="M5.94947 17.0001L5.73643 14.0175C5.6219 12.414 6.89185 11.0501 8.49946 11.0501C10.1071 11.0501 11.377 12.414 11.2626 14.0175L11.0495 17.0001" fill="#5C4228"/>
</svg>
